<?xml version="1.0" encoding="UTF-8"?>
<svg width="159px" height="207px" viewBox="0 0 159 207" version="1.1" xmlns="http://www.w3.org/2000/svg" xmlns:xlink="http://www.w3.org/1999/xlink" xmlns:sketch="http://www.bohemiancoding.com/sketch/ns">
    <!-- Generator: Sketch 3.4.4 (17249) - http://www.bohemiancoding.com/sketch -->
    <title>Black</title>
    <desc>Created with Sketch.</desc>
    <defs></defs>
    <g id="Page-1" stroke="none" stroke-width="1" fill="none" fill-rule="evenodd" sketch:type="MSPage">
        <g id="Black" sketch:type="MSLayerGroup" transform="translate(-67.000000, -31.000000)" stroke="#000000" stroke-linecap="square">
            <path d="M158.486876,205 L196.590664,205" id="Line-Copy-9" stroke-width="4" sketch:type="MSShapeGroup"></path>
            <path d="M156.491387,222 L214.547439,222" id="Line-Copy-14" stroke-width="4" sketch:type="MSShapeGroup"></path>
            <path d="M107.696711,222.035211 L74.4857263,222.035211" id="Line-Copy-13" stroke-width="4" sketch:type="MSShapeGroup"></path>
            <path d="M161,201.380501 L161,227.263138" id="Line-Copy-18" stroke-width="4" sketch:type="MSShapeGroup"></path>
            <path d="M101,55.5 L101,227.502914" id="Line-Copy-3" stroke-width="4" sketch:type="MSShapeGroup"></path>
            <path d="M162,58.5 L162,122.570278" id="Line-Copy-4" stroke-width="4" sketch:type="MSShapeGroup"></path>
            <path d="M83,33.4976239 L83,223.002632" id="Line-Copy-12" stroke-width="4" sketch:type="MSShapeGroup"></path>
            <path d="M180,34.4829072 L180,123.640312" id="Line-Copy-11" stroke-width="4" sketch:type="MSShapeGroup"></path>
            <path d="M186.5,37.4941957 L186.5,123.640312" id="Line-Copy-17" sketch:type="MSShapeGroup"></path>
            <g id="Line-Copy-7-+-Line-Copy-8" transform="translate(195.000000, 118.000000)" sketch:type="MSShapeGroup">
                <path d="M2,15.4184049 L2,90.5" id="Line-Copy-7" stroke-width="4"></path>
                <path d="M20,2.99535066 L20,105.000003" id="Line-Copy-8" stroke-width="4"></path>
                <path d="M25.5,0.465410742 L25.5,114.539454" id="Line-Copy-8"></path>
            </g>
            <path d="M132,115.439013 L132,148.263138" id="Line-Copy-3" stroke-width="4" sketch:type="MSShapeGroup"></path>
            <path d="M125.811804,142 L200.506691,142" id="Line-Copy-6" stroke-width="4" sketch:type="MSShapeGroup"></path>
            <path d="M176.490745,124 L220.783121,124" id="Line-Copy-15" stroke-width="4" sketch:type="MSShapeGroup"></path>
            <path d="M126.811804,123 L165.144558,123" id="Line-Copy-6" stroke-width="4" sketch:type="MSShapeGroup"></path>
            <path d="M92.4803208,63.0211267 L168.558548,63.0211267" id="Line-Copy-5" stroke-width="4" sketch:type="MSShapeGroup"></path>
            <path d="M69.4999989,45.0211267 L181.000005,45.0211267" id="Line-Copy-16" stroke-width="4" sketch:type="MSShapeGroup"></path>
            <path d="M69.4999989,39.5052817 L194.503874,39.5052817" id="Line-Copy-16" sketch:type="MSShapeGroup"></path>
            <path d="M77.5,33.4976239 L77.5,236.522163" id="Line-Copy-12" sketch:type="MSShapeGroup"></path>
            <path d="M176.490745,117.5 L220.783121,117.5" id="Line-Copy-15" sketch:type="MSShapeGroup"></path>
            <path d="M107.696711,228.508803 L74.4857263,228.508803" id="Line-Copy-13" sketch:type="MSShapeGroup"></path>
            <path d="M156.491387,227.5 L224.507354,227.5" id="Line-Copy-14" sketch:type="MSShapeGroup"></path>
        </g>
    </g>
</svg>